name C:\Users\u0101727\Documents\MyRepositories\paper-ad\trackingsimulations_3d\Results\TrackSim\IK_c10.mot
datacolumns 32
datarows 11
range 3.85000000 4.01000000
endheader
time	pelvis_tilt	pelvis_list	pelvis_rotation	pelvis_tx	pelvis_ty	pelvis_tz	hip_flexion_l	hip_adduction_l	hip_rotation_l	hip_flexion_r	hip_adduction_r	hip_rotation_r	knee_angle_l	knee_angle_r	ankle_angle_l	ankle_angle_r	subtalar_angle_l	subtalar_angle_r	lumbar_extension	lumbar_bending	lumbar_rotation	arm_flex_l	arm_add_l	arm_rot_l	arm_flex_r	arm_add_r	arm_rot_r	elbow_flex_l	elbow_flex_r	pro_sup_l	pro_sup_r	
          3.85000000	          0.29729994	         -3.00138171	          7.11110684	          0.02525017	          0.92265439	         -0.22399374	        -11.49065938	         -4.80342558	          1.36244949	         26.48178534	          4.45830948	         -7.55090873	        -36.11871109	        -22.68967374	         -4.27187159	         -5.96835777	         13.29314776	        -10.98792003	         -3.96964578	          5.51418758	         -8.63418007	         -1.76112930	        -14.53452693	         19.20445202	         -9.28688835	        -15.61583723	         14.50143692	         22.97289597	         11.48719029	         86.51662706	         86.51662706	
          3.86600000	          0.45453362	         -4.03310981	          6.94301920	          0.04884388	          0.92341707	         -0.22274034	         -9.50049995	         -6.03093635	          1.21868982	         25.57701366	          5.89230993	         -7.47083963	        -40.43575663	        -23.98336694	        -10.30059619	         -3.94348199	         11.91845171	        -11.14829462	         -3.77312289	          6.84057030	         -8.19801186	         -2.25853040	        -14.03274342	         19.48222909	         -9.05998351	        -15.91192726	         14.48136010	         21.88781138	         11.80622560	         86.51662706	         86.51662706	
          3.88200000	          0.64780772	         -4.88355324	          6.86402294	          0.07157833	          0.92474132	         -0.22173658	         -7.16692293	         -6.87984217	          1.79442227	         24.29712006	          7.08271549	         -7.49958512	        -44.80831212	        -24.66973378	        -15.38129672	         -1.92487809	         10.75164319	        -10.95418968	         -3.75859117	          7.95411397	         -7.77769302	         -2.62079069	        -13.59597793	         19.90494087	         -8.72893931	        -16.20768318	         14.34657056	         20.84520700	         12.32762789	         86.51662706	         86.51662706	
          3.89800000	          0.85991184	         -5.57915809	          6.88151661	          0.09338230	          0.92659149	         -0.22094972	         -4.52100244	         -7.38928249	          2.79109146	         22.74035212	          8.07170584	         -7.58784423	        -49.28462277	        -24.83051301	        -18.00195423	         -0.10030035	          9.71973550	        -10.58455047	         -3.90474677	          8.87903290	         -7.36328538	         -2.83557657	        -13.24067314	         20.47421451	         -8.31090931	        -16.50579148	         14.11690117	         19.89195993	         13.07760482	         86.51662706	         86.51662706	
          3.91400000	          1.08628781	         -6.09923683	          7.01766145	          0.11434946	          0.92900478	         -0.22038038	         -1.67031658	         -7.55936836	          4.01899621	         20.96538506	          8.84310022	         -7.71813793	        -53.52579464	        -24.55608646	        -19.09981329	          1.46577165	          8.04824526	        -10.11261558	         -4.18317180	          9.58775505	         -6.98077932	         -2.92580516	        -12.98548733	         21.15436490	         -7.84549445	        -16.80216688	         13.81732735	         19.06759485	         14.08595958	         86.51662706	         86.51662706	
          3.93000000	          1.30436902	         -6.39131773	          7.26929290	          0.13463089	          0.93197130	         -0.22000174	          1.35549659	         -7.35144001	          5.40842941	         19.03960542	          9.34680009	         -7.87752212	        -57.45790271	        -23.95288321	        -18.55188673	          2.79103960	          6.43350235	         -9.54731718	         -4.53992288	         10.01215777	         -6.64885773	         -2.93412029	        -12.84570188	         21.87296879	         -7.37167956	        -17.08531640	         13.47439749	         18.39621796	         15.35991276	         86.51662706	         86.51662706	
          3.94600000	          1.48278810	         -6.43437988	          7.58426740	          0.15442546	          0.93537845	         -0.21972807	          4.49387858	         -6.76839914	          6.80204071	         17.03329300	          9.57335157	         -8.04511013	        -60.91195199	        -23.12127263	        -16.79757591	          3.90861152	          5.06368316	         -8.89028069	         -4.90701245	         10.11877633	         -6.34747737	         -2.91985185	        -12.82207300	         22.53666690	         -6.92040140	        -17.35098854	         13.10916368	         17.89834693	         16.87305378	         86.51662706	         86.51662706	
          3.96200000	          1.59455863	         -6.23684214	          7.88456139	          0.17391831	          0.93905239	         -0.21944993	          7.66703394	         -5.85838260	          8.01843027	         15.00906762	          9.54588704	         -8.18802914	        -63.69925817	        -22.14962077	        -14.40109172	          4.84569891	          3.88101192	         -8.15969257	         -5.22866982	          9.90996785	         -6.02810342	         -2.94098146	        -12.90179773	         23.04504536	         -6.50722415	        -17.60130429	         12.73775403	         17.59188528	         18.57259688	         86.51662706	         86.51662706	
          3.97800000	          1.61901274	         -5.83190174	          8.06140554	          0.19324223	          0.94278360	         -0.21901681	         10.79992514	         -4.71087718	          8.89836975	         13.03325883	          9.32105226	         -8.22144600	        -65.68669713	        -21.12719774	        -11.81924436	          5.60567441	          3.00374151	         -7.43381435	         -5.47439269	          9.41610208	         -5.60034822	         -3.04245501	        -13.06301041	         23.30666171	         -6.13479671	        -17.84486698	         12.37353809	         17.49338261	         20.39663107	         86.51662706	         86.51662706	
          3.99400000	          1.55206029	         -5.26506568	          8.04201677	          0.21246118	          0.94635562	         -0.21834473	         13.81583885	         -3.43249185	          9.33882499	         11.16171910	          8.94631893	         -8.09825164	        -66.78064772	        -20.14399549	         -9.09536312	          6.22395196	          2.23112080	         -6.74854380	         -5.64077563	          8.68957953	         -5.00710079	         -3.24537122	        -13.27843809	         23.26463433	         -5.78696612	        -18.09560126	         12.02441682	         17.60165617	         22.28745993	         86.51662706	         86.51662706	
          4.01000000	          1.41271910	         -4.60771180	          7.81015308	          0.23159694	          0.94959358	         -0.21742975	         16.65446696	         -2.15664065	          9.34267735	          9.41548404	          8.48045101	         -7.82089170	        -66.91933863	        -19.25075864	         -6.52427559	          6.73580076	          1.52292589	         -6.09988762	         -5.74634433	          7.82169498	         -4.24505767	         -3.54514168	        -13.51530162	         22.91177433	         -5.43307973	        -18.37175264	         11.69389736	         17.88962208	         24.19440892	         86.51662706	         86.51662706	
